<svg xmlns="http://www.w3.org/2000/svg" viewBox="0 0 512 512">
    <path fill="#F05032" d="M491.1,236.3L275.7,20.9c-12.4-12.4-32.5-12.4-44.9,0L196.7,55l56.6,56.6c13.1-4.4,28.1-1.5,38.5,8.9 c10.5,10.5,13.3,25.7,8.7,38.9l54.6,54.6c13.2-4.6,28.4-1.8,38.9,8.7c14.6,14.6,14.6,38.2,0,52.8c-14.6,14.6-38.2,14.6-52.8,0 c-11-11-13.7-27.1-8.1-40.7l-50.9-50.9v133.8c3.6,1.8,6.9,4.1,9.9,7.1c14.6,14.6,14.6,38.2,0,52.8c-14.6,14.6-38.2,14.6-52.8,0 c-14.6-14.6-14.6-38.2,0-52.8c3.6-3.6,7.7-6.3,12.1-8.1V185.8c-4.4-1.8-8.5-4.5-12.1-8.1c-11.1-11.1-13.8-27.3-8-41.1L125.1,80 L20.9,184.2c-12.4,12.4-12.4,32.5,0,44.9l215.4,215.4c12.4,12.4,32.5,12.4,44.9,0l210-210C503.5,268.8,503.5,248.7,491.1,236.3z"/>
</svg> 