<svg xmlns="http://www.w3.org/2000/svg" viewBox="0 0 512 512">
    <path fill="#13AA52" d="M256 421.6c-18.1 0-33.2-6.8-42.9-18.6-7-8.5-11.1-11.1-19.5-11.1-31.7 0-28.3 21.5-54.2 54-54.2 32.5 0 54 25.9 54 54.2 0 12.2-4.1 23.2-11.1 31.7-9.7 11.8-24.8 18.6-42.9 18.6zm-18.6-97.3c-26.6 0-47.8 21.2-47.8 47.8 0 26.6 21.2 47.8 47.8 47.8s47.8-21.2 47.8-47.8c0-26.6-21.2-47.8-47.8-47.8z"/>
    <path fill="#13AA52" d="M256 384c-26.5 0-48-21.5-48-48s21.5-48 48-48 48 21.5 48 48-21.5 48-48 48zm0-89.6c-23 0-41.6 18.7-41.6 41.6s18.7 41.6 41.6 41.6 41.6-18.7 41.6-41.6-18.6-41.6-41.6-41.6z"/>
</svg> 