<svg xmlns="http://www.w3.org/2000/svg" viewBox="0 0 442 512">
    <path fill="#83CD29" d="M221.1,0c-6,0-12,1.6-17.2,4.4L31.7,106.9C21,113.1,15,124.3,15,136.3v238.8c0,12,6.1,23.1,16.7,29.3l172.2,99.5c5.2,2.8,11.2,4.4,17.2,4.4s12-1.6,17.2-4.4l172.2-99.5c10.6-6.2,16.7-17.3,16.7-29.3V136.3c0-12-6.1-23.1-16.7-29.3L238.3,4.4C233.1,1.6,227.1,0,221.1,0z"/>
    <path fill="#FFF" d="M221.1,62.7c-1.7,0-3.4,0.4-4.9,1.3L145,107.8c-3,1.7-4.9,5-4.9,8.4v87.4c0,3.5,1.8,6.7,4.9,8.4l71.2,43.8c1.5,0.9,3.2,1.3,4.9,1.3s3.4-0.4,4.9-1.3l71.2-43.8c3-1.7,4.9-5,4.9-8.4v-87.4c0-3.5-1.8-6.7-4.9-8.4L226,64C224.5,63.1,222.8,62.7,221.1,62.7z"/>
</svg> 